# File created by Blade
# Date/Time:  Thu Sep 25 17:14:50 2014
# Frame Rate: 120.000 fps
#------------------------------------------------------
:FULLY-SPECIFIED
:DEGREES
607
root -11.636828 34.834346 9.064687 228.610108 41.934910 91.650344
Spine 2.728319 4.182747 30.754979
Head -90.423221 -5.165572 12.569119
LeftShoulder -143.062311 -48.852341 216.658734
LeftArm -21.682967 15.895807 -48.464603
LeftForeArm 12.202379 -0.000000 47.823449
LeftHand -32.881253 -0.000000 20.937528
LeftHandThumb1 -26.253704 0.000000 33.147579
RightShoulder -29.628283 69.703412 -79.920043
RightArm 3.170407 10.474534 46.521528
RightForeArm -12.367294 -0.000000 35.437454
RightHand -7.140712 -0.000000 -80.542116
RightHandThumb1 -24.326973 -0.000000 -32.862282
LeftUpLeg 2.110352 2.783115 14.410221
LeftLeg 6.726728 -0.000000 -0.000000
LeftFoot 20.982854 14.128144 -29.777325
LeftToeBase 8.087889 -0.000000 -0.000000
RightUpLeg -102.749310 -40.208981 9.474260
RightLeg 0.112709 -0.000000 -0.000000
RightFoot 3.881644 -15.401785 -12.760376
RightToeBase -10.156647 -0.000000 0.000000
608
root -12.168853 34.524678 9.247615 229.241977 41.821759 94.627493
Spine 3.414911 4.307093 30.704126
Head -89.940882 -5.381655 13.044111
LeftShoulder -143.251472 -48.868404 216.813079
LeftArm -21.568646 15.850663 -49.789909
LeftForeArm 14.750677 -0.000000 48.295508
LeftHand -33.522921 0.000000 21.118007
LeftHandThumb1 -26.253704 0.000000 33.147579
RightShoulder -23.855916 68.417185 -73.498681
RightArm 4.109709 11.223528 46.027787
RightForeArm -11.002889 -0.000000 34.612993
RightHand -7.090213 -0.000000 -80.265243
RightHandThumb1 -24.326973 -0.000000 -32.862282
LeftUpLeg 1.234513 3.031737 14.077782
LeftLeg 6.299758 -0.000000 -0.000000
LeftFoot 18.591835 13.633231 -31.606053
LeftToeBase 6.789600 -0.000000 -0.000000
RightUpLeg -103.537624 -39.284918 10.435410
RightLeg 0.494950 -0.000000 -0.000000
RightFoot 4.389234 -14.608564 -12.718528
RightToeBase -10.175047 -0.000000 0.000000
609
root -12.704040 34.191580 9.440741 229.840216 41.692215 97.655886
Spine 4.075674 4.529002 30.600735
Head -89.451001 -5.588082 13.430641
LeftShoulder -143.670252 -48.980546 217.111757
LeftArm -21.358386 15.757558 -51.161035
LeftForeArm 16.423609 0.000000 48.695934
LeftHand -34.206267 -0.000000 21.848568
LeftHandThumb1 -26.253704 0.000000 33.147579
RightShoulder -18.110322 66.589272 -67.134601
RightArm 5.158717 12.133550 45.419498
RightForeArm -9.521950 -0.000000 33.800606
RightHand -7.242561 0.000000 -79.913060
RightHandThumb1 -24.326973 -0.000000 -32.862282
LeftUpLeg 0.369694 3.311717 13.821259
LeftLeg 5.836065 -0.000000 -0.000000
LeftFoot 16.421628 12.875077 -32.937182
LeftToeBase 6.187019 -0.000000 -0.000000
RightUpLeg -103.147095 -38.660918 9.525327
RightLeg 2.702605 -0.000000 -0.000000
RightFoot -0.890625 -13.427057 -11.753763
RightToeBase -23.969980 -0.000000 0.000000
610
root -13.228382 33.890071 9.620285 230.226580 41.494639 100.016583
Spine 4.236714 4.630730 30.221382
Head -89.006779 -5.871228 13.512623
LeftShoulder -143.847359 -49.920336 216.878169
LeftArm -20.535524 15.184171 -52.128121
LeftForeArm 17.395278 0.000000 49.269273
LeftHand -34.654326 -0.000000 22.075303
LeftHandThumb1 -26.253704 0.000000 33.147579
RightShoulder -13.947406 66.349442 -62.907495
RightArm 4.291484 11.576925 44.348040
RightForeArm -7.734508 -0.000000 33.189837
RightHand -7.516563 -0.000000 -79.452671
RightHandThumb1 -24.326973 -0.000000 -32.862282
LeftUpLeg -1.020232 3.064303 13.207661
LeftLeg 5.425182 -0.000000 -0.000000
LeftFoot 14.207849 12.175654 -33.865983
LeftToeBase 6.438806 -0.000000 -0.000000
RightUpLeg -103.665707 -38.131167 9.310723
RightLeg 6.840073 -0.000000 -0.000000
RightFoot -7.670396 -11.892429 -15.100451
RightToeBase -19.049366 -0.000000 0.000000
611
root -13.757143 33.602074 9.794014 230.553819 41.545233 102.428723
Spine 4.490498 4.868716 29.718797
Head -88.428141 -6.129024 13.244444
LeftShoulder -143.969947 -51.635493 216.243685
LeftArm -19.045176 14.609060 -52.724716
LeftForeArm 18.180774 -0.000000 49.773233
LeftHand -34.677315 0.000000 21.770217
LeftHandThumb1 -26.253704 0.000000 33.147579
RightShoulder -9.400101 64.480045 -58.019983
RightArm 5.123800 11.779707 43.570541
RightForeArm -5.807729 0.000000 31.966955
RightHand -7.743872 -0.000000 -78.965119
RightHandThumb1 -24.326973 -0.000000 -32.862282
LeftUpLeg -2.327814 3.068117 12.380321
LeftLeg 4.934461 -0.000000 -0.000000
LeftFoot 12.811711 11.445358 -33.448553
LeftToeBase 5.478513 -0.000000 -0.000000
RightUpLeg -102.797434 -37.575233 7.200175
RightLeg 11.807657 -0.000000 -0.000000
RightFoot -12.347098 -13.058624 -13.574282
RightToeBase -10.137759 -0.000000 0.000000
612
root -14.269855 33.319358 9.975451 231.089520 41.818776 105.389759
Spine 5.254602 5.326503 29.588763
Head -88.083783 -6.550168 12.434526
LeftShoulder -144.382614 -53.224041 215.840477
LeftArm -18.052122 14.611847 -53.002345
LeftForeArm 19.110627 -0.000000 50.385194
LeftHand -34.338173 -0.000000 20.555065
LeftHandThumb1 -26.253704 0.000000 33.147579
RightShoulder -5.829966 62.133308 -54.344107
RightArm 6.572875 12.410731 43.141557
RightForeArm -3.942785 -0.000000 30.472158
RightHand -7.787878 -0.000000 -77.872620
RightHandThumb1 -24.326973 -0.000000 -32.862282
LeftUpLeg -3.478083 3.479467 11.675262
LeftLeg 4.533548 -0.000000 -0.000000
LeftFoot 11.495139 10.964780 -33.163327
LeftToeBase 4.832364 -0.000000 -0.000000
RightUpLeg -99.376081 -36.573536 2.546294
RightLeg 14.668259 -0.000000 -0.000000
RightFoot -16.743618 -15.605505 -10.387035
RightToeBase -6.836430 -0.000000 0.000000
613
root -14.762398 33.088204 10.149995 231.916005 42.367152 108.440180
Spine 5.857026 6.065243 29.143627
Head -87.706386 -6.981308 12.252927
LeftShoulder -144.395432 -55.330838 215.202860
LeftArm -16.676663 14.538704 -53.128196
LeftForeArm 20.894849 -0.000000 50.633773
LeftHand -33.657190 -0.000000 19.078880
LeftHandThumb1 -26.253704 0.000000 33.147579
RightShoulder -2.226377 58.403459 -50.036120
RightArm 9.520095 13.640441 42.370062
RightForeArm -2.228240 0.000000 28.518126
RightHand -7.976553 -0.000000 -75.972491
RightHandThumb1 -24.326973 -0.000000 -32.862282
LeftUpLeg -4.957378 3.979902 10.694564
LeftLeg 4.167864 -0.000000 -0.000000
LeftFoot 10.034141 11.154887 -33.099769
LeftToeBase 4.588934 -0.000000 -0.000000
RightUpLeg -96.078843 -34.856952 -1.631132
RightLeg 14.835388 -0.000000 -0.000000
RightFoot -19.312082 -16.961199 -9.292494
RightToeBase -10.035803 -0.000000 0.000000
614
root -15.217351 32.881574 10.350397 233.189719 42.777860 111.612067
Spine 6.053386 6.833054 28.996562
Head -87.317936 -7.562476 11.873520
LeftShoulder -144.415100 -57.740202 214.198464
LeftArm -15.085505 14.761724 -53.063185
LeftForeArm 23.195613 -0.000000 50.720567
LeftHand -33.255825 0.000000 17.701011
LeftHandThumb1 -26.253704 0.000000 33.147579
RightShoulder 0.175113 54.919954 -47.252188
RightArm 12.264829 14.363447 41.967092
RightForeArm 0.363762 -0.000000 26.703698
RightHand -7.691286 -0.000000 -73.995023
RightHandThumb1 -24.326973 -0.000000 -32.862282
LeftUpLeg -6.960585 4.428373 9.871141
LeftLeg 3.893437 -0.000000 -0.000000
LeftFoot 8.220389 11.591050 -33.821403
LeftToeBase 4.922142 -0.000000 -0.000000
RightUpLeg -93.396109 -32.574503 -4.924133
RightLeg 13.957125 -0.000000 -0.000000
RightFoot -19.821465 -20.983135 -9.769451
RightToeBase -7.131190 -0.000000 0.000000
615
root -15.668252 32.685338 10.519090 234.733778 43.354493 115.156032
Spine 6.402478 7.652269 29.057616
Head -87.066140 -8.092263 11.367381
LeftShoulder -143.996157 -60.060392 212.608255
LeftArm -13.679333 15.159252 -53.137305
LeftForeArm 25.687901 -0.000000 50.508639
LeftHand -32.983318 -0.000000 16.813502
LeftHandThumb1 -26.253704 0.000000 33.147579
RightShoulder 1.817733 51.853523 -45.478448
RightArm 14.805836 14.650050 41.842913
RightForeArm 2.923967 -0.000000 25.115483
RightHand -7.646367 -0.000000 -69.866583
RightHandThumb1 -24.326973 -0.000000 -32.862282
LeftUpLeg -8.831113 5.331579 9.020039
LeftLeg 3.249411 -0.000000 -0.000000
LeftFoot 6.642942 12.271403 -34.886267
LeftToeBase 4.265146 -0.000000 -0.000000
RightUpLeg -91.553868 -29.924209 -6.646578
RightLeg 13.133281 -0.000000 -0.000000
RightFoot -21.245063 -23.808370 -9.263438
RightToeBase -0.301386 -0.000000 0.000000
616
root -16.099187 32.522937 10.662346 236.531338 43.967601 118.890976
Spine 6.704695 8.438948 29.344718
Head -86.760798 -8.594560 10.637651
LeftShoulder -142.781219 -62.824406 209.854228
LeftArm -11.904713 15.321108 -53.098685
LeftForeArm 28.008210 0.000000 50.015698
LeftHand -33.177413 -0.000000 16.418135
LeftHandThumb1 -26.253704 0.000000 33.147579
RightShoulder 3.193140 49.206154 -44.326597
RightArm 16.966722 14.666636 41.830252
RightForeArm 5.235682 0.000000 23.853284
RightHand -7.725277 -0.000000 -65.092370
RightHandThumb1 -24.326973 -0.000000 -32.862282
LeftUpLeg -10.712141 6.315398 8.145181
LeftLeg 2.207514 -0.000000 -0.000000
LeftFoot 5.034086 13.250079 -36.441343
LeftToeBase 3.222651 -0.000000 -0.000000
RightUpLeg -90.590655 -27.213304 -6.625915
RightLeg 12.100053 -0.000000 -0.000000
RightFoot -21.840849 -24.799944 -9.367857
RightToeBase -1.958592 -0.000000 0.000000
